<svg width="41" height="41" viewBox="0 0 41 41" fill="none" xmlns="http://www.w3.org/2000/svg">
<circle cx="20.5" cy="20.5" r="20" stroke="#667561"/>
<path d="M17.8333 27.0223C13.6667 28.2723 13.6667 24.939 12 24.5223M23.6667 29.5223V26.2973C23.6979 25.9 23.6442 25.5005 23.5092 25.1255C23.3741 24.7505 23.1608 24.4085 22.8833 24.1223C25.5 23.8307 28.25 22.839 28.25 18.289C28.2498 17.1255 27.8022 16.0067 27 15.164C27.3799 14.1461 27.353 13.021 26.925 12.0223C26.925 12.0223 25.9417 11.7307 23.6667 13.2557C21.7567 12.738 19.7433 12.738 17.8333 13.2557C15.5583 11.7307 14.575 12.0223 14.575 12.0223C14.147 13.021 14.1201 14.1461 14.5 15.164C13.6918 16.0129 13.2438 17.1419 13.25 18.314C13.25 22.8307 16 23.8223 18.6167 24.1473C18.3425 24.4306 18.1311 24.7685 17.9961 25.1389C17.8611 25.5094 17.8057 25.904 17.8333 26.2973V29.5223" stroke="#667561" stroke-width="2" stroke-linecap="round" stroke-linejoin="round"/>
</svg>
