<svg width="41" height="41" viewBox="0 0 41 41" fill="none" xmlns="http://www.w3.org/2000/svg">
<circle cx="20.5" cy="20.5" r="20" stroke="#667561"/>
<path d="M23.8 17.1053C24.9139 17.1053 25.9822 17.5378 26.7698 18.3077C27.5575 19.0776 28 20.1217 28 21.2105V26H25.2V21.2105C25.2 20.8476 25.0525 20.4995 24.7899 20.2429C24.5274 19.9863 24.1713 19.8421 23.8 19.8421C23.4287 19.8421 23.0726 19.9863 22.8101 20.2429C22.5475 20.4995 22.4 20.8476 22.4 21.2105V26H19.6V21.2105C19.6 20.1217 20.0425 19.0776 20.8302 18.3077C21.6178 17.5378 22.6861 17.1053 23.8 17.1053Z" stroke="#667561" stroke-linecap="round" stroke-linejoin="round"/>
<path d="M16.8 17.7895H14V26H16.8V17.7895Z" stroke="#667561" stroke-linecap="round" stroke-linejoin="round"/>
<path d="M15.4 15.7368C16.1732 15.7368 16.8 15.1242 16.8 14.3684C16.8 13.6127 16.1732 13 15.4 13C14.6268 13 14 13.6127 14 14.3684C14 15.1242 14.6268 15.7368 15.4 15.7368Z" stroke="#667561" stroke-linecap="round" stroke-linejoin="round"/>
</svg>
